<svg
  width="117"
  height="117"
  viewBox="0 0 117 117"
  fill="none"
  xmlns="http://www.w3.org/2000/svg"
>
  <rect width="117" height="117" rx="18" fill="white" />
  <path
    d="M26.5 61.5C26.5 49.244 32.7932 38.4582 42.3346 32.2537C45.574 34.5081 48.2994 37.4495 50.3226 40.8688C43.9061 45.0228 39.6667 52.24 39.6667 60.5C39.6667 68.76 43.9061 75.9772 50.3226 80.1312C48.2994 83.5505 45.574 86.4919 42.3346 88.7463C32.7932 82.5418 26.5 71.756 26.5 59.5V61.5Z"
    fill="#1F8B2E"
  />
  <path
    d="M61.0465 40.8688C59.0233 37.4495 56.2979 34.5081 53.0585 32.2537C62.5999 38.4582 68.8931 49.244 68.8931 61.5V59.5C68.8931 71.756 62.5999 82.5418 53.0585 88.7463C56.2979 86.4919 59.0233 83.5505 61.0465 80.1312C67.463 75.9772 71.7024 68.76 71.7024 60.5C71.7024 52.24 67.463 45.0228 61.0465 40.8688Z"
    fill="#F5C338"
  />
  <path
    d="M53.4135 36.3286C46.997 40.4826 42.7576 47.6998 42.7576 55.9598C42.7576 64.2198 46.997 71.437 53.4135 75.591C59.83 71.437 64.0694 64.2198 64.0694 55.9598C64.0694 47.6998 59.83 40.4826 53.4135 36.3286Z"
    fill="white"
  />
  <g fill="#215A24">
    <path
      d="M74 45.8H82.8856C89.7804 45.8 94.2612 49.8216 94.2612 56.2664C94.2612 62.7112 89.7804 66.85 82.8856 66.85H74V45.8ZM82.5976 62.1332C86.4412 62.1332 88.8396 59.9068 88.8396 56.2664C88.8396 52.626 86.4412 50.5152 82.5976 50.5152H79.278V62.1332H82.5976Z"
    />
    <path
      d="M74 69.3H82.7716C87.2216 69.3 89.8396 70.9452 89.8396 73.9724C89.8396 76.0228 88.6116 77.4948 86.5276 78.208C89.2188 78.8044 90.7716 80.4792 90.7716 83.0204C90.7716 86.6472 87.8224 88.7332 83.0488 88.7332H74V69.3ZM82.0368 76.9316C83.8672 76.9316 84.882 76.3012 84.882 74.9724C84.882 73.6728 83.8672 73.0708 82.0368 73.0708H78.9272V76.9316H82.0368ZM82.5904 84.9104C84.7412 84.9104 85.8716 84.1924 85.8716 82.7472C85.8716 81.2732 84.7412 80.5552 82.5904 80.5552H78.9272V84.9104H82.5904Z"
    />
    <path d="M74 91.2H79.278V109.8H74V91.2Z" />
  </g>
</svg>
